# xmcd
# 
# Track frame offsets:
#     150
#     13032
#     25369
#     39026
#     48897
#     68158
#     82319
#     96718
#     109422
#     121596
#     165265
# 
# Disc length: 2252
# 
# Revision: 3
# Processed by: cddbd v1.5.2PL0 Copyright (c) Steve Scherf et al.
# Submitted via: fre:ac v1.0.31
# 
DISCID=8708ca0b
DTITLE=The Virgins - The Virgins
DYEAR=2008
DGENRE=Indie
TTITLE0=She's Expensive
TTITLE1=One Week Of Danger
TTITLE2=Rich Girls
TTITLE3=Teen Lovers
TTITLE4=Fernando Pando
TTITLE5=Murder
TTITLE6=Hey Hey Girl
TTITLE7=Private Affair
TTITLE8=Radio Christiane
TTITLE9=Love Is Colder Than Death
TTITLE10=DATA
EXTD=
EXTT0=
EXTT1=
EXTT2=
EXTT3=
EXTT4=
EXTT5=
EXTT6=
EXTT7=
EXTT8=
EXTT9=
EXTT10=
PLAYORDER=
